<?xml version="1.0" encoding="UTF-8" standalone="no"?><!DOCTYPE svg PUBLIC "-//W3C//DTD SVG 1.1//EN" "http://www.w3.org/Graphics/SVG/1.1/DTD/svg11.dtd"><svg width="100%" height="100%" viewBox="0 0 109 40" version="1.1" xmlns="http://www.w3.org/2000/svg" xmlns:xlink="http://www.w3.org/1999/xlink" xml:space="preserve" xmlns:serif="http://www.serif.com/" style="fill-rule:evenodd;clip-rule:evenodd;stroke-linejoin:round;stroke-miterlimit:2;"><g id="Capa3"><path d="M0,20c0,11.046 8.954,20 20,20c11.046,0 20,-8.954 20,-20c0,-11.046 -8.954,-20 -20,-20c-11.046,0 -20,8.954 -20,20Zm20,16c-7.264,0 -13.321,-5.163 -14.704,-12.02c-0.326,-1.622 1.047,-2.98 2.704,-2.98l24,0c1.657,0 3.031,1.357 2.704,2.98c-1.384,6.858 -7.44,12.02 -14.704,12.02Z" style="fill:#2563eb;"/></g><g id="Capa2"><g transform="matrix(1,0,0,1,-11.212,7.69652)"><text x="58.416px" y="19.466px" style="font-family:'Lato-Bold', 'Lato', sans-serif;font-weight:700;font-size:16px;">Git</text><g transform="matrix(16,0,0,16,121.296,19.4662)"></g><text x="80.512px" y="19.466px" style="font-family:'Lato-Bold', 'Lato', sans-serif;font-weight:700;font-size:16px;fill:#2563eb;">mood</text></g></g></svg>